<svg width="20" height="20" viewBox="0 0 20 20" fill="none" xmlns="http://www.w3.org/2000/svg">
<rect opacity="0.01" width="20" height="20" fill="white"/>
<path d="M10.6496 4.12687L17.0525 15.2252C17.341 15.7252 16.9801 16.35 16.4029 16.35H3.59711C3.01987 16.35 2.65901 15.7252 2.94748 15.2252L9.35036 4.12687C9.63898 3.6266 10.361 3.6266 10.6496 4.12687Z" stroke="#FF4C3A" stroke-width="1.5"/>
<rect x="9.25" y="8.09985" width="1.5" height="4.2" rx="0.75" fill="#FF4C3A"/>
<path fill-rule="evenodd" clip-rule="evenodd" d="M10.0001 14.6999C10.4972 14.6999 10.9001 14.297 10.9001 13.7999C10.9001 13.3028 10.4972 12.8999 10.0001 12.8999C9.50304 12.8999 9.1001 13.3028 9.1001 13.7999C9.1001 14.297 9.50304 14.6999 10.0001 14.6999Z" fill="#FF4C3A"/>
</svg>
